#!OML:ASF F:\twosubjects\two\Thursday\Session 1\Rory.ASF
:FULLY-SPECIFIED
:DEGREES
246
root 13.1449 17.8254 -12.7899 2.85309 -18.3845 4.63149
lowerback -0.0155886 1.89238 -2.78061
upperback 3.55423 2.6614 -2.98972
thorax 3.68715 1.28574 -1.43986
lowerneck -5.3352 -1.89694 -0.304052
upperneck 47.5584 -5.48801 4.16634
head 19.4774 -1.92185 1.15848
rclavicle 3.88624e-014 -4.49253e-014
rhumerus -30.9116 -8.24772 -84.2896
rradius 32.8801
rwrist 17.9703
rhand -20.8908 24.3433
rfingers 7.12502
rthumb 5.47982 -5.56584
lclavicle 3.88624e-014 -4.49253e-014
lhumerus -30.3532 9.43762 82.1192
lradius 33.0985
lwrist -20.1745
lhand -11.3338 31.2346
lfingers 7.12502
lthumb 14.6989 60.6935
rfemur -8.24615 6.91194 15.2174
rtibia 25.2206
rfoot -18.5778 -18.0895
rtoes -10.8008
lfemur -11.6002 3.57305 -22.6653
ltibia 17.523
lfoot -10.1871 9.12518
ltoes 20.1262
247
root 13.1209 17.8292 -12.807 2.98934 -18.3181 4.52069
lowerback -0.20249 2.23312 -2.39886
upperback 3.65799 3.12647 -3.11608
thorax 3.93155 1.53038 -1.75878
lowerneck -5.57595 -2.27016 0.134486
upperneck 47.2755 -6.33908 4.59285
head 19.4112 -2.12028 1.14147
rclavicle 3.47873e-015 1.86858e-014
rhumerus -31.012 -9.95678 -84.1956
rradius 33.3066
rwrist 18.3722
rhand -20.8702 24.3199
rfingers 7.12502
rthumb 5.49971 -5.58876
lclavicle 3.47873e-015 1.86858e-014
lhumerus -30.0228 8.66615 82.2236
lradius 32.7263
lwrist -20.1225
lhand -12.3737 30.4903
lfingers 7.12502
lthumb 13.6969 60.0195
rfemur -8.41064 6.70583 15.4066
rtibia 25.2811
rfoot -18.6009 -17.8472
rtoes -11.992
lfemur -11.6844 3.47399 -22.4605
ltibia 17.4189
lfoot -9.91917 9.4194
ltoes 18.7547
248
root 13.0941 17.8303 -12.8229 3.05535 -18.1514 4.57194
lowerback -0.409646 1.53446 -2.88013
upperback 3.25399 2.17824 -2.41174
thorax 3.56692 1.0351 -0.795589
lowerneck -4.40703 -1.61386 -1.48338
upperneck 47.1672 -5.04155 4.85027
head 18.9927 -1.89339 1.78745
rclavicle -2.05245e-014 -1.41137e-014
rhumerus -31.7502 -7.33803 -83.9878
rradius 33.805
rwrist 18.0243
rhand -20.9164 24.3487
rfingers 7.12502
rthumb 5.45503 -5.56105
lclavicle -2.05245e-014 -1.41137e-014
lhumerus -31.4192 11.0573 82.1882
lradius 32.2372
lwrist -19.9102
lhand -13.1701 29.6913
lfingers 7.12502
lthumb 12.9292 59.2708
rfemur -8.52827 6.30483 15.4282
rtibia 25.3458
rfoot -18.7893 -17.6066
rtoes -8.18661
lfemur -11.7485 3.48358 -22.4255
ltibia 17.295
lfoot -9.67092 9.39166
ltoes 17.8515
249
root 13.0707 17.8284 -12.846 2.90812 -18.1117 4.7401
lowerback -0.0425468 1.34872 -3.43963
upperback 3.16949 1.91172 -2.12622
thorax 3.24639 0.885931 -0.208662
lowerneck -4.56696 -1.5071 -1.44396
upperneck 47.1295 -4.85003 4.73574
head 18.9894 -1.82124 1.75115
rclavicle 6.34123e-014 3.37934e-015
rhumerus -31.8359 -6.36803 -83.9988
rradius 34.2639
rwrist 17.4885
rhand -21.0271 24.6855
rfingers 7.12502
rthumb 5.34821 -5.22701
lclavicle 6.34123e-014 3.37934e-015
lhumerus -31.3246 11.2923 82.2591
lradius 31.5234
lwrist -19.7974
lhand -12.9004 29.6498
lfingers 7.12502
lthumb 13.1892 59.2126
rfemur -8.45372 6.4752 15.3837
rtibia 25.381
rfoot -18.8782 -17.73
rtoes -1.50321
lfemur -11.6553 3.52769 -22.4946
ltibia 17.1862
lfoot -9.59892 9.33528
ltoes 17.949
250
root 13.0492 17.8285 -12.8703 2.84688 -18.2042 4.67617
lowerback 0.401493 1.38023 -3.82815
upperback 3.03588 1.91974 -1.67461
thorax 2.82995 0.880715 0.459115
lowerneck -4.88155 -1.58345 -1.42507
upperneck 47.1988 -4.87892 4.48291
head 19.1122 -1.84817 1.61961
rclavicle 2.55314e-014 -6.4605e-015
rhumerus -31.9622 -5.78686 -83.5942
rradius 34.6085
rwrist 17.2816
rhand -21.4556 24.8442
rfingers 7.12502
rthumb 4.93448 -5.07838
lclavicle 2.55314e-014 -6.4605e-015
lhumerus -31.4253 11.6713 82.5948
lradius 31.2356
lwrist -20.2908
lhand -12.0324 30.2367
lfingers 7.12502
lthumb 14.0258 59.7435
rfemur -8.44139 6.74695 15.5751
rtibia 25.4252
rfoot -18.9197 -17.8233
rtoes -2.35461
lfemur -11.5653 3.40396 -22.3031
ltibia 17.0765
lfoot -9.6167 9.54748
ltoes 18.7119
251
root 13.0259 17.8284 -12.898 2.84118 -18.2128 4.53017
lowerback 0.625435 1.57628 -3.7764
upperback 2.90871 2.1589 -1.41258
thorax 2.55529 1.00403 0.694774
lowerneck -4.71345 -1.76785 -1.41378
upperneck 46.9991 -5.18022 4.56294
head 18.9522 -1.95233 1.6071
rclavicle 2.73329e-016 5.46658e-015
rhumerus -32.2761 -6.06041 -83.136
rradius 34.8565
rwrist 17.4961
rhand -22.1109 24.7472
rfingers 7.12502
rthumb 4.30164 -5.18906
lclavicle 2.73329e-016 5.46658e-015
lhumerus -31.7155 12.0012 82.782
lradius 31.0498
lwrist -21.0672
lhand -11.6528 30.4141
lfingers 7.12502
lthumb 14.3915 59.8952
rfemur -8.46685 6.56103 15.8309
rtibia 25.4424
rfoot -18.8244 -17.6714
rtoes -1.49
lfemur -11.5368 3.28277 -22.021
ltibia 17.0286
lfoot -9.74579 9.65474
ltoes 19.0537
252
root 13.0036 17.8256 -12.9221 2.76425 -18.1 4.7629
lowerback 0.748026 1.62186 -4.1129
upperback 2.85393 2.21206 -1.32746
thorax 2.41293 1.02488 0.965347
lowerneck -4.57494 -1.85257 -1.22363
upperneck 46.6526 -5.40426 4.744
head 18.6982 -1.98742 1.61747
rclavicle -1.78161e-014 1.5207e-014
rhumerus -32.5045 -6.17978 -83.0028
rradius 35.234
rwrist 17.5067
rhand -22.3745 24.7481
rfingers 7.12502
rthumb 4.04711 -5.1932
lclavicle -1.78161e-014 1.5207e-014
lhumerus -32.0172 12.5901 82.6143
lradius 30.9129
lwrist -22.2235
lhand -12.2267 29.4611
lfingers 7.12502
lthumb 13.8385 58.9808
rfemur -8.49281 6.1486 15.6552
rtibia 25.4296
rfoot -18.7872 -17.4158
rtoes -5.874
lfemur -11.56 3.10812 -22.1637
ltibia 17.041
lfoot -10.1351 9.73767
ltoes 18.9388
253
root 12.986 17.821 -12.9383 2.70154 -17.9786 5.06122
lowerback 0.899317 1.48594 -4.77213
upperback 2.86508 2.021 -1.04349
thorax 2.31834 0.913114 1.61816
lowerneck -4.84753 -1.74871 -1.18221
upperneck 46.3417 -5.26541 4.81784
head 18.5578 -1.90892 1.65632
rclavicle 1.717e-014 1.98785e-016
rhumerus -32.3604 -5.45947 -82.819
rradius 35.6039
rwrist 17.0897
rhand -22.3548 24.5696
rfingers 7.12502
rthumb 4.06612 -5.37139
lclavicle 1.717e-014 1.98785e-016
lhumerus -32.1102 13.0484 82.8105
lradius 30.5792
lwrist -22.4145
lhand -12.9737 28.9422
lfingers 7.12502
lthumb 13.1185 58.5096
rfemur -8.49827 5.95644 15.3791
rtibia 25.3849
rfoot -18.9028 -17.2318
rtoes -6.62306
lfemur -11.6467 2.87552 -22.4116
ltibia 17.1306
lfoot -10.3611 9.92834
ltoes 18.3355
254
root 12.9658 17.8162 -12.9626 2.65917 -17.9072 5.0109
lowerback 0.811717 1.4559 -4.20616
upperback 2.8768 1.98718 -1.24595
thorax 2.40544 0.909445 1.09739
lowerneck -4.49988 -1.61661 -0.959702
upperneck 45.8432 -5.29221 5.35765
head 18.164 -1.82784 1.85755
rclavicle -2.60905e-015 -9.44227e-015
rhumerus -32.2873 -5.53316 -83.1662
rradius 35.7161
rwrist 16.5294
rhand -22.4257 24.2473
rfingers 7.12502
rthumb 3.9977 -5.69493
lclavicle -2.60905e-015 -9.44227e-015
lhumerus -32.1148 12.2499 82.5921
lradius 30.1321
lwrist -21.8488
lhand -12.7956 29.507
lfingers 7.12502
lthumb 13.2902 59.0632
rfemur -8.4072 5.96619 15.5314
rtibia 25.2911
rfoot -18.995 -17.2555
rtoes -6.71657
lfemur -11.7502 2.82472 -22.2646
ltibia 17.3323
lfoot -10.0928 9.93833
ltoes 18.298
255
root 12.9375 17.8146 -12.9923 2.73937 -17.8563 4.56812
lowerback 1.28721 1.73539 -4.47685
upperback 2.37664 2.30653 -0.425604
thorax 1.56336 1.08014 2.06765
lowerneck -3.00252 -1.83674 -1.66267
upperneck 45.1479 -5.51662 5.66026
head 17.3883 -2.02368 2.09088
rclavicle 4.47266e-015 -2.82274e-014
rhumerus -33.316 -5.35078 -81.8897
rradius 36.1445
rwrist 15.6617
rhand -22.188 24.0981
rfingers 7.12502
rthumb 4.22724 -5.83974
lclavicle 4.47266e-015 -2.82274e-014
lhumerus -33.3077 12.6826 83.2495
lradius 30.2078
lwrist -23.5746
lhand -10.8173 29.9048
lfingers 7.12502
lthumb 15.1964 59.3267
rfemur -8.35566 5.90752 16.1484
rtibia 25.1897
rfoot -18.9617 -17.287
rtoes -6.91095
lfemur -11.9051 2.96604 -21.6724
ltibia 17.5672
lfoot -9.77274 9.8938
ltoes 18.2428
256
root 12.9088 17.8148 -13.0138 2.85987 -17.8208 4.20629
lowerback 0.143524 1.60218 -1.80473
upperback 3.47423 2.22419 -2.15189
thorax 3.51001 1.08644 -1.13953
lowerneck -4.36745 -1.48349 0.482775
upperneck 44.0056 -5.78364 6.77163
head 17.0726 -1.6449 2.11107
rclavicle -1.11046e-013 9.14409e-015
rhumerus -31.2262 -7.64574 -84.6307
rradius 36.0611
rwrist 16.3396
rhand -21.7989 24.1914
rfingers 7.12502
rthumb 4.60295 -5.73863
lclavicle -1.11046e-013 9.14409e-015
lhumerus -31.2668 11.5507 80.8944
lradius 30.1287
lwrist -24.1315
lhand -8.8714 30.2038
lfingers 7.12502
lthumb 17.0702 59.4739
rfemur -8.34903 6.02654 16.6591
rtibia 25.1239
rfoot -18.9637 -17.2628
rtoes -5.68967
lfemur -12.0414 3.10311 -21.1906
ltibia 17.7541
lfoot -9.7383 9.95053
ltoes 16.8469
